<?xml version="1.0" encoding="UTF-8"?>
<svg xmlns="http://www.w3.org/2000/svg" xmlns:xlink="http://www.w3.org/1999/xlink" viewBox="0 0 160 160" width="160px" height="160px">
<g id="surface31006460">
<path style=" stroke:none;fill-rule:nonzero;fill:rgb(81.176472%,25.098041%,30.19608%);fill-opacity:1;" d="M 85.554688 154 C 72.363281 154 63.109375 147.9375 58.035156 135.980469 C 55.4375 129.839844 54 122.132812 54 114.269531 L 54 66 L 34 66 L 34 49.265625 C 54.464844 39.675781 65.226562 25.132812 65.960938 6.042969 L 86.011719 6 L 86 42 L 118 42 L 118 66 L 86 66 L 86 113.53125 C 85.992188 115.328125 86.292969 121.445312 90.589844 125.761719 C 93.386719 128.574219 97.242188 130 102.050781 130 C 110.964844 130 120.878906 126.492188 126 124.398438 L 126 143.792969 C 122.433594 146.171875 108.890625 154 85.554688 154 Z M 85.554688 154 "/>
<path style=" stroke:none;fill-rule:nonzero;fill:rgb(81.176472%,25.098041%,30.19608%);fill-opacity:1;" d="M 84 8 L 84 44 L 116 44 L 116 64 L 84 64 L 84 113.542969 C 83.988281 115.511719 84.332031 122.304688 89.171875 127.171875 C 92.359375 130.375 96.695312 132 102.054688 132 C 109.875 132 118.382812 129.421875 124 127.328125 L 124 142.699219 C 119.472656 145.496094 106.667969 152 85.554688 152 C 73.242188 152 64.605469 146.347656 59.875 135.199219 C 57.375 129.304688 56 121.867188 56 114.253906 L 56 64 L 36 64 L 36 50.527344 C 60.273438 38.703125 66.847656 21.289062 67.851562 8.015625 C 72.277344 8.007812 79.507812 8.003906 84 8 M 86.015625 4 C 81.476562 4.003906 70.398438 4.007812 65.925781 4.015625 C 64.84375 4.015625 64.003906 4.890625 63.964844 5.972656 C 62.910156 33.34375 39.8125 44.335938 33.125 47.46875 C 32.425781 47.796875 32 48.488281 32 49.265625 L 32 66 C 32 67.105469 32.894531 68 34 68 L 52 68 L 52 114.253906 C 52 118.523438 51.964844 156 85.554688 156 C 109.621094 156 123.652344 147.765625 127.140625 145.4375 C 127.6875 145.066406 128 144.453125 128 143.792969 L 128 124.398438 C 128 123.246094 127.0625 122.394531 126.007812 122.394531 C 125.757812 122.394531 125.5 122.445312 125.246094 122.546875 C 120.566406 124.460938 110.722656 128 102.054688 128 C 87.714844 128 88 114.117188 88 113.53125 L 88 68 L 118 68 C 119.105469 68 120 67.105469 120 66 L 120 42 C 120 40.894531 119.105469 40 118 40 L 88 40 L 88 6 C 88 4.894531 87.121094 4 86.015625 4 Z M 86.015625 4 "/>
</g>
</svg>
